<svg width="804" height="321" viewBox="0 0 804 321" fill="none" xmlns="http://www.w3.org/2000/svg">
<path d="M153.75 72.69C193.43 57.1 232.89 43.67 274.06 35.51C311.42 28.11 348.92 25.48 386.92 29.42C425.13 33.38 461.49 42.88 494.94 62.18C507.03 69.16 518.29 77.29 528.64 86.64C530.99 88.76 533.28 89.53 536.46 89.15C589.12 82.83 639.51 91.4499 687.59 113.15C712.6 124.44 733.82 141.35 753.98 161.24C731.66 163.9 712.06 159.02 694.17 147.4C687.23 142.89 680.91 137.44 674.27 132.46C647.67 112.51 617.44 102.41 584.53 99.2C546.14 95.45 508.68 101.12 471.46 109.63C469.53 110.07 467.7 111.09 465.26 109.96C478.11 103.66 491.22 99 505.56 94.89C501.97 92.42 499.03 90.24 495.94 88.28C455.37 62.42 411.08 47.53 363.1 43.1C315.36 38.69 268.55 44.1399 222.14 54.9899C201.57 59.7999 181.37 65.91 161.23 72.19C159 72.89 156.93 73.71 153.75 72.69Z" fill="#F4E622"/>
<path d="M232.32 64.09C229.46 66.01 226.49 67.79 223.78 69.9C220.07 72.78 221.2 75.45 225.07 76.57C229.62 77.9 234.38 78.81 239.11 79.18C279.1 82.28 319.11 85.17 359.11 88.21C380.41 89.83 401.69 91.6 423.05 94.01C422.24 94.13 421.44 94.36 420.63 94.36C368.83 94.43 317.03 94.21 265.31 90.83C248.1 89.71 230.95 88.25 214.08 84.46C209.82 83.5 205.64 82.32 201.82 80.22C198.06 78.15 197.71 75.59 201.63 73.33C211.02 67.92 221.4 65.34 232.32 64.09Z" fill="#F1E223"/>
<path d="M53.8101 96.76C82.3801 105.48 110.88 98.53 138.8 101.75C140.36 101.93 141.93 101.97 143.72 102.75C114.3 106.92 87.1201 115.89 65.4401 138.35C64.0501 123.39 62.6301 109.44 53.8101 96.76Z" fill="#F1E223"/>
<path d="M213.04 144C204.28 148.82 196.59 152.12 189.18 143.3C197.04 140.47 204.47 141.78 213.04 144Z" fill="#D92329"/>
<path d="M231.82 132.21C244.19 127.67 252.36 132.74 254.4 145.91C256.49 159.47 250.4 169.66 239.06 171.58C229.3 173.23 220.02 166.12 219.3 156.41C219.22 155.29 218.72 154.1 220.54 153.47C224.46 152.12 229.83 154.31 231.62 158.31C232.53 160.33 233.84 161.92 236.17 161.99C238.43 162.06 240.2 160.8 241.14 158.81C243.35 154.11 243.67 149.23 241.71 144.38C239.6 139.15 236.62 138.34 232.39 142.21C228.94 145.36 225.11 143.69 221.88 142.99C219.12 142.4 221.45 139.03 221.53 136.99C221.83 129.75 222.62 122.53 223.05 115.29C223.26 111.74 224.53 110.27 228.41 110.48C235.05 110.83 241.74 110.85 248.38 110.44C252.76 110.17 253.1 112.25 252.87 115.61C252.68 118.46 253.53 121.68 248.69 120.98C246.45 120.66 244.12 120.93 241.83 120.93C231.78 120.93 231.78 120.93 231.82 132.21Z" fill="#F4F3F2"/>
<path d="M556.39 148.61C556.55 170.78 557.2 166.98 537.87 167.3C536 167.33 534.12 167.17 532.27 167.32C527.41 167.71 525.37 165.08 525.3 160.71C525.16 152.44 525.18 144.16 525.26 135.89C525.3 131.17 527.74 128.64 532.6 128.66C538.2 128.68 543.81 128.68 549.41 128.69C554.02 128.7 556.26 131.16 556.37 135.58C556.48 139.92 556.39 144.27 556.39 148.61ZM531.33 147.83C531.33 149.89 531.62 152 531.27 154.01C530.36 159.4 532.74 160.41 537.71 160.28C550.33 159.95 550.34 160.2 550.34 147.85C550.34 146.2 550.08 144.5 550.39 142.91C551.58 136.65 548.72 135.53 543 135.76C531.35 136.22 531.33 135.9 531.33 147.83Z" fill="#EBEAE9"/>
<path d="M637.28 167.23C634.37 167.23 631.44 167.43 628.55 167.18C624.82 166.86 621.57 160.56 623.79 157.8C624.73 156.63 627.19 154.78 628.38 156.82C632.76 164.31 639.39 158.88 644.82 159.75C647.46 160.18 645.9 156.12 646.29 154.12C646.67 152.19 645.9 151.11 643.62 151.17C639.26 151.3 634.89 151.12 630.52 151.21C627.03 151.28 625 149.86 624.68 146.28C624.62 145.67 624.4 145.07 624.32 144.45C622.54 131.16 624.71 128.65 638.03 128.67C640.73 128.67 643.47 128.53 646.12 128.92C650.28 129.52 651 132.81 651.28 136.31C651.41 137.93 650.41 138.48 649.14 138.81C648.26 139.04 647.25 140.35 646.49 138.99C642.6 132.07 636.3 136.95 631.22 136.02C628.53 135.53 629.7 138.75 629.49 140.37C629.28 142.06 629.36 143.74 631.9 143.69C635.43 143.61 638.97 143.64 642.5 143.7C649.88 143.82 651.29 145.2 651.42 152.33C651.42 152.54 651.42 152.74 651.42 152.95C651.59 167.3 651.59 167.3 637.28 167.23Z" fill="#EBEAE9"/>
<path d="M369.04 153.34C372.96 158.32 376.12 162.34 379.52 166.66C374.38 168.17 370.83 167.42 368.41 162.71C367.01 159.98 364.73 157.71 363.15 155.06C361.81 152.8 359.9 152.65 357.81 153.08C355.39 153.58 356.32 155.68 356.24 157.16C356.11 159.64 356.13 162.13 356.21 164.61C356.29 166.91 355 167.27 353.07 167.35C350.93 167.44 350.19 166.7 350.2 164.55C350.28 153.58 350.29 142.61 350.2 131.64C350.18 129.04 351.38 128.59 353.62 128.63C359.43 128.74 365.25 128.68 371.06 128.69C373.01 128.7 375.01 129.14 376.06 130.74C378.89 135.05 377.36 140 377.68 144.68C378.07 150.28 375.23 153.12 369.04 153.34ZM364.48 135.64C364.07 135.64 363.65 135.65 363.24 135.64C359.39 135.57 355.85 134.68 355.94 141.15C356.03 147.54 359.71 145.98 363.12 146.1C364.15 146.14 365.21 145.98 366.22 146.13C370.56 146.79 371.7 145 371.86 140.69C372.09 134.33 367.94 135.82 364.48 135.64Z" fill="#EBEAE9"/>
<path d="M587.59 153.35C591.15 157.92 594.41 162.09 597.87 166.52C592.79 168.42 589.39 167.29 586.89 162.82C585.29 159.95 583.14 157.39 581.33 154.63C580.06 152.7 578.21 152.76 576.36 153.07C573.94 153.47 574.62 155.5 574.57 157.03C574.49 159.51 574.48 161.99 574.57 164.47C574.65 166.62 573.68 167.31 571.6 167.36C569.38 167.42 568.8 166.53 568.81 164.47C568.88 153.51 568.87 142.55 568.83 131.6C568.82 129.58 569.45 128.6 571.67 128.64C577.89 128.76 584.11 128.63 590.33 128.83C591.66 128.87 593.56 129.47 594.19 130.46C597.69 135.92 596.18 142.04 595.83 147.92C595.55 152.52 591.51 152.75 587.59 153.35ZM581 146.11C582.37 146.11 582.79 146.12 583.2 146.11C586.74 146.03 590.44 147.28 590.44 140.97C590.45 134.8 586.94 135.66 583.27 135.65C581.61 135.64 579.94 135.74 578.29 135.63C575.79 135.46 574.73 136.19 574.44 139.01C573.84 144.96 575.74 147.63 581 146.11Z" fill="#EBEAE9"/>
<path d="M408.44 147.85C408.44 142.88 408.58 137.91 408.4 132.94C408.29 129.85 409.11 128.24 412.54 128.65C414.38 128.87 416.27 128.69 418.14 128.69C435.01 128.69 442.24 137.74 438.49 154.17C436.18 164.3 432.63 167.14 422.16 167.27C408.41 167.43 408.41 167.43 408.43 153.44C408.44 151.58 408.44 149.72 408.44 147.85ZM414.1 147.7C414.1 150.79 414.16 153.89 414.08 156.98C414.03 158.9 414.45 160.16 416.73 160.17C426.75 160.19 433.26 160.39 432.82 146.81C432.53 137.77 430.29 136.25 419.76 135.76C410.13 135.31 415.48 142.25 414.13 145.86C413.93 146.39 414.11 147.08 414.1 147.7Z" fill="#F4F3F2"/>
<path d="M449.92 149.07C449.92 126.19 449.92 126.23 472.44 128.6C474.42 128.81 475.44 129.15 475.52 131.35C475.63 134.26 475.22 136.05 471.53 135.74C467.41 135.39 463.22 135.81 459.08 135.62C455.79 135.47 455.51 137.2 455.48 139.83C455.44 142.58 456.02 143.76 459.16 144.1C462.01 144.41 467.2 141.13 467.35 147.19C467.51 153.95 461.84 150.36 458.96 150.59C454.95 150.91 455.6 153.14 455.51 155.54C455.41 158.24 455.5 160.44 459.32 160.19C463.66 159.91 468.04 160.24 472.4 160.1C475.16 160.02 475.95 161.22 476 163.81C476.06 166.53 475.08 167.62 472.39 167.34C471.36 167.23 470.31 167.34 469.28 167.32C463.07 167.21 454.77 169.48 451.19 166.36C447.11 162.8 450.53 154.32 449.92 149.07Z" fill="#E6E5E4"/>
<path d="M279.57 148.08C279.57 148.49 279.57 148.91 279.57 149.32C279.57 160.8 281.13 161.94 292.78 160.24C296.26 159.73 294.98 157.54 295.36 155.76C295.62 154.56 294.42 152.24 296.71 152.48C298.41 152.66 300.82 152.59 301.49 155.39C303.24 162.66 299.75 167.26 292.17 167.3C288.22 167.32 284.27 167.22 280.32 167.32C276.24 167.41 274.02 165.61 274 161.47C273.97 152.56 273.99 143.64 274 134.73C274.01 130.53 276.51 128.83 280.35 128.72C284.51 128.61 288.67 128.61 292.83 128.68C299.6 128.79 302.73 133.03 301.54 139.72C301.05 142.48 299.14 142.06 297.44 142.45C294.93 143.03 295.21 141.15 295.39 139.85C295.86 136.43 294.27 135.86 291.19 135.82C279.57 135.65 279.57 135.53 279.57 148.08Z" fill="#EBEAE9"/>
<path d="M508.09 152.45C514.76 152.16 514.09 156.47 513.78 160.4C513.46 164.49 512.16 167.6 507.04 167.34C502.27 167.1 497.48 167.22 492.69 167.32C488.6 167.4 486.41 165.58 486.39 161.45C486.36 152.54 486.36 143.62 486.39 134.71C486.4 130.53 488.9 128.82 492.76 128.73C496.71 128.64 500.66 128.64 504.61 128.68C512.06 128.76 514.13 131.12 513.92 138.51C513.85 141.14 512.97 142.01 510.41 142.44C507.07 143.01 507.58 140.9 507.76 139.19C508.07 136.27 506.65 135.94 504.15 135.83C491.98 135.27 491.99 135.19 491.97 147.51C491.97 148.34 491.97 149.17 491.97 150C491.96 160.23 491.96 160.23 502.06 160.15C507.45 160.12 507.45 160.12 508.09 152.45Z" fill="#EBEAE9"/>
<path d="M308.07 166.66C312.34 155.1 316.6 143.53 320.88 131.96C321.52 130.23 322.03 128.61 324.58 128.6C326.88 128.59 328.01 129.52 328.73 131.44C333.07 143.15 337.42 154.87 341.8 166.68C337.78 167.96 334.9 167.73 334.05 163.22C333.41 159.81 331.42 158.39 327.88 158.86C325.84 159.13 323.72 159.05 321.66 158.86C318.11 158.54 315.68 159.35 315.03 163.41C314.39 167.41 311.77 168.21 308.07 166.66ZM329.99 151.91C328.24 146.91 326.62 142.25 324.62 136.51C322.57 142.33 320.93 147 319.2 151.91C323.04 151.91 326.27 151.91 329.99 151.91Z" fill="#F4F3F2"/>
<path d="M607.42 150.89C605.77 149.01 606.55 147.75 607.03 146.4C608.1 143.39 610.49 140.49 606.29 137.5C605.18 136.71 605.87 133.2 605.99 130.95C606.11 128.68 607.92 128.72 609.65 128.64C611.53 128.55 613.01 128.97 613.3 131.04C614.34 138.48 611.94 144.84 607.42 150.89Z" fill="#E6E5E4"/>
<path d="M189.16 142.25C189.16 142.25 187.56 140.01 186.28 139.69Z" fill="#C3BA30"/>
<path d="M188.75 142.54C188.12 141.48 187.43 140.27 186.28 139.69C187.61 139.98 188.62 141.02 189.56 141.96C189.75 142.16 189.74 142.48 189.54 142.67C189.31 142.9 188.9 142.83 188.75 142.54Z" fill="#FFDE17"/>
<path d="M192.14 141.37C192.14 141.37 189.76 137.59 188.7 136.97Z" fill="#C3BA30"/>
<path d="M191.71 141.64C190.81 140.04 190.03 138.27 188.7 136.98C190.27 138.04 191.37 139.66 192.56 141.11C192.73 141.33 192.69 141.65 192.47 141.81C192.22 142 191.85 141.91 191.71 141.64Z" fill="#FFDE17"/>
<path d="M197.11 140.63L197.61 136.61L198.11 140.63C198.19 141.37 197.04 141.37 197.11 140.63Z" fill="#FFDE17"/>
<path d="M201.87 140.27C201.87 140.27 203.33 137.31 204.25 136.49Z" fill="#C3BA30"/>
<path d="M201.42 140.05C202.27 138.8 203.08 137.48 204.25 136.49C203.35 137.67 202.86 139.12 202.32 140.49C202.23 140.75 201.94 140.89 201.68 140.79C201.37 140.69 201.24 140.31 201.42 140.05Z" fill="#FFDE17"/>
<path d="M207.26 141.07C207.26 141.07 209.6 137.39 213.24 135.91Z" fill="#C3BA30"/>
<path d="M206.84 140.8C208.51 138.66 210.67 136.82 213.24 135.91C212.04 136.5 210.98 137.32 210.06 138.25C209.15 139.17 208.32 140.24 207.68 141.35C207.33 141.95 206.43 141.36 206.84 140.8Z" fill="#FFDE17"/>
<path d="M212.22 142.59C212.22 142.59 214.32 140.29 215.94 139.65Z" fill="#C3BA30"/>
<path d="M211.85 142.25C213.09 141.21 214.39 140.16 215.94 139.65C214.57 140.44 213.54 141.71 212.59 142.93C212.14 143.51 211.31 142.74 211.85 142.25Z" fill="#FFDE17"/>
<path d="M112.734 214.696C110.69 214.696 108.85 214.346 107.214 213.645C105.579 212.915 104.294 211.893 103.359 210.578C102.424 209.264 101.957 207.731 101.957 205.978H107.302C107.419 207.293 107.93 208.373 108.835 209.22C109.77 210.067 111.069 210.491 112.734 210.491C114.457 210.491 115.801 210.082 116.765 209.264C117.729 208.417 118.211 207.336 118.211 206.022C118.211 205 117.904 204.167 117.291 203.525C116.706 202.882 115.962 202.386 115.056 202.035C114.18 201.685 112.953 201.305 111.376 200.896C109.39 200.371 107.769 199.845 106.513 199.319C105.287 198.764 104.235 197.917 103.359 196.778C102.483 195.639 102.045 194.12 102.045 192.222C102.045 190.469 102.483 188.936 103.359 187.622C104.235 186.308 105.462 185.3 107.039 184.599C108.616 183.898 110.442 183.547 112.515 183.547C115.465 183.547 117.875 184.292 119.744 185.782C121.642 187.242 122.694 189.257 122.898 191.828H117.378C117.291 190.718 116.765 189.769 115.801 188.98C114.837 188.191 113.567 187.797 111.99 187.797C110.558 187.797 109.39 188.162 108.485 188.892C107.579 189.622 107.127 190.674 107.127 192.047C107.127 192.981 107.404 193.755 107.959 194.369C108.543 194.953 109.273 195.42 110.149 195.77C111.026 196.121 112.223 196.501 113.742 196.91C115.757 197.464 117.393 198.019 118.649 198.574C119.934 199.129 121.014 199.991 121.891 201.159C122.796 202.298 123.249 203.832 123.249 205.759C123.249 207.307 122.825 208.767 121.978 210.14C121.16 211.513 119.948 212.623 118.342 213.47C116.765 214.288 114.896 214.696 112.734 214.696ZM150.434 193.01C150.434 194.558 150.068 196.019 149.338 197.391C148.608 198.764 147.44 199.889 145.833 200.765C144.227 201.612 142.168 202.035 139.656 202.035H134.136V214.39H129.142V183.942H139.656C141.993 183.942 143.964 184.351 145.571 185.168C147.206 185.957 148.418 187.038 149.207 188.41C150.025 189.783 150.434 191.316 150.434 193.01ZM139.656 197.961C141.555 197.961 142.971 197.537 143.906 196.691C144.84 195.814 145.308 194.588 145.308 193.01C145.308 189.681 143.424 188.016 139.656 188.016H134.136V197.961H139.656ZM160.191 187.972V196.91H170.706V200.984H160.191V210.315H172.02V214.39H155.197V183.898H172.02V187.972H160.191ZM176.507 199.1C176.507 196.121 177.193 193.449 178.566 191.083C179.968 188.717 181.852 186.877 184.217 185.563C186.612 184.219 189.226 183.547 192.059 183.547C195.301 183.547 198.178 184.351 200.69 185.957C203.231 187.534 205.071 189.783 206.21 192.704H200.208C199.419 191.097 198.324 189.9 196.922 189.111C195.52 188.323 193.899 187.928 192.059 187.928C190.044 187.928 188.248 188.381 186.671 189.287C185.093 190.192 183.852 191.492 182.947 193.186C182.071 194.88 181.632 196.851 181.632 199.1C181.632 201.349 182.071 203.32 182.947 205.014C183.852 206.708 185.093 208.023 186.671 208.957C188.248 209.863 190.044 210.315 192.059 210.315C193.899 210.315 195.52 209.921 196.922 209.133C198.324 208.344 199.419 207.147 200.208 205.54H206.21C205.071 208.461 203.231 210.71 200.69 212.287C198.178 213.864 195.301 214.653 192.059 214.653C189.197 214.653 186.583 213.995 184.217 212.681C181.852 211.338 179.968 209.483 178.566 207.117C177.193 204.752 176.507 202.079 176.507 199.1ZM217.05 183.942V214.39H212.056V183.942H217.05ZM241.964 208.169H229.215L227.024 214.39H221.811L232.72 183.898H238.503L249.411 214.39H244.154L241.964 208.169ZM240.562 204.094L235.611 189.944L230.617 204.094H240.562ZM259.149 210.359H269.444V214.39H254.155V183.942H259.149V210.359ZM278.615 183.942V214.39H273.621V183.942H278.615ZM295.205 214.696C293.16 214.696 291.32 214.346 289.685 213.645C288.049 212.915 286.764 211.893 285.83 210.578C284.895 209.264 284.428 207.731 284.428 205.978H289.773C289.889 207.293 290.4 208.373 291.306 209.22C292.24 210.067 293.54 210.491 295.205 210.491C296.928 210.491 298.272 210.082 299.235 209.264C300.199 208.417 300.681 207.336 300.681 206.022C300.681 205 300.375 204.167 299.761 203.525C299.177 202.882 298.432 202.386 297.527 202.035C296.651 201.685 295.424 201.305 293.847 200.896C291.861 200.371 290.24 199.845 288.984 199.319C287.757 198.764 286.706 197.917 285.83 196.778C284.953 195.639 284.515 194.12 284.515 192.222C284.515 190.469 284.953 188.936 285.83 187.622C286.706 186.308 287.932 185.3 289.51 184.599C291.087 183.898 292.912 183.547 294.986 183.547C297.936 183.547 300.345 184.292 302.215 185.782C304.113 187.242 305.164 189.257 305.369 191.828H299.849C299.761 190.718 299.235 189.769 298.272 188.98C297.308 188.191 296.037 187.797 294.46 187.797C293.029 187.797 291.861 188.162 290.955 188.892C290.05 189.622 289.597 190.674 289.597 192.047C289.597 192.981 289.875 193.755 290.43 194.369C291.014 194.953 291.744 195.42 292.62 195.77C293.496 196.121 294.694 196.501 296.213 196.91C298.228 197.464 299.863 198.019 301.119 198.574C302.404 199.129 303.485 199.991 304.361 201.159C305.267 202.298 305.719 203.832 305.719 205.759C305.719 207.307 305.296 208.767 304.449 210.14C303.631 211.513 302.419 212.623 300.813 213.47C299.235 214.288 297.366 214.696 295.205 214.696ZM331.283 183.942V188.016H323.178V214.39H318.184V188.016H310.035V183.942H331.283ZM352.716 183.942V214.39H347.722V183.942H352.716ZM384.289 214.39H379.294L364.267 191.652V214.39H359.273V183.898H364.267L379.294 206.592V183.898H384.289V214.39ZM434.296 183.942V214.39H429.302V193.536L420.014 214.39H416.553L407.222 193.536V214.39H402.227V183.942H407.616L418.306 207.818L428.952 183.942H434.296ZM454.749 214.696C451.916 214.696 449.302 214.039 446.907 212.725C444.541 211.381 442.657 209.527 441.255 207.161C439.882 204.766 439.196 202.079 439.196 199.1C439.196 196.121 439.882 193.449 441.255 191.083C442.657 188.717 444.541 186.877 446.907 185.563C449.302 184.219 451.916 183.547 454.749 183.547C457.611 183.547 460.225 184.219 462.591 185.563C464.986 186.877 466.869 188.717 468.242 191.083C469.615 193.449 470.301 196.121 470.301 199.1C470.301 202.079 469.615 204.766 468.242 207.161C466.869 209.527 464.986 211.381 462.591 212.725C460.225 214.039 457.611 214.696 454.749 214.696ZM454.749 210.359C456.764 210.359 458.56 209.907 460.137 209.001C461.714 208.067 462.941 206.752 463.817 205.058C464.723 203.335 465.175 201.349 465.175 199.1C465.175 196.851 464.723 194.88 463.817 193.186C462.941 191.492 461.714 190.192 460.137 189.287C458.56 188.381 456.764 187.928 454.749 187.928C452.733 187.928 450.937 188.381 449.36 189.287C447.783 190.192 446.541 191.492 445.636 193.186C444.76 194.88 444.322 196.851 444.322 199.1C444.322 201.349 444.76 203.335 445.636 205.058C446.541 206.752 447.783 208.067 449.36 209.001C450.937 209.907 452.733 210.359 454.749 210.359ZM485.161 183.942C488.403 183.942 491.236 184.57 493.66 185.826C496.113 187.052 497.997 188.834 499.311 191.17C500.655 193.478 501.327 196.179 501.327 199.275C501.327 202.371 500.655 205.058 499.311 207.336C497.997 209.614 496.113 211.367 493.66 212.594C491.236 213.791 488.403 214.39 485.161 214.39H475.216V183.942H485.161ZM485.161 210.315C488.724 210.315 491.455 209.352 493.353 207.424C495.252 205.496 496.201 202.78 496.201 199.275C496.201 195.741 495.252 192.981 493.353 190.995C491.455 189.009 488.724 188.016 485.161 188.016H480.21V210.315H485.161ZM511.271 183.942V214.39H506.276V183.942H511.271ZM535.746 183.942V188.016H522.822V196.997H532.899V201.072H522.822V214.39H517.828V183.942H535.746ZM545.369 183.942V214.39H540.375V183.942H545.369ZM550.261 199.1C550.261 196.121 550.948 193.449 552.32 191.083C553.722 188.717 555.606 186.877 557.972 185.563C560.367 184.219 562.981 183.547 565.814 183.547C569.056 183.547 571.933 184.351 574.445 185.957C576.986 187.534 578.826 189.783 579.965 192.704H573.963C573.174 191.097 572.079 189.9 570.677 189.111C569.275 188.323 567.654 187.928 565.814 187.928C563.799 187.928 562.002 188.381 560.425 189.287C558.848 190.192 557.607 191.492 556.701 193.186C555.825 194.88 555.387 196.851 555.387 199.1C555.387 201.349 555.825 203.32 556.701 205.014C557.607 206.708 558.848 208.023 560.425 208.957C562.002 209.863 563.799 210.315 565.814 210.315C567.654 210.315 569.275 209.921 570.677 209.133C572.079 208.344 573.174 207.147 573.963 205.54H579.965C578.826 208.461 576.986 210.71 574.445 212.287C571.933 213.864 569.056 214.653 565.814 214.653C562.952 214.653 560.338 213.995 557.972 212.681C555.606 211.338 553.722 209.483 552.32 207.117C550.948 204.752 550.261 202.079 550.261 199.1ZM604.167 208.169H591.418L589.228 214.39H584.014L594.923 183.898H600.706L611.615 214.39H606.357L604.167 208.169ZM602.765 204.094L597.814 189.944L592.82 204.094H602.765ZM636.029 183.942V188.016H627.924V214.39H622.929V188.016H614.781V183.942H636.029ZM646.081 183.942V214.39H641.086V183.942H646.081ZM666.526 214.696C663.693 214.696 661.079 214.039 658.684 212.725C656.318 211.381 654.434 209.527 653.032 207.161C651.66 204.766 650.973 202.079 650.973 199.1C650.973 196.121 651.66 193.449 653.032 191.083C654.434 188.717 656.318 186.877 658.684 185.563C661.079 184.219 663.693 183.547 666.526 183.547C669.388 183.547 672.002 184.219 674.368 185.563C676.763 186.877 678.647 188.717 680.019 191.083C681.392 193.449 682.078 196.121 682.078 199.1C682.078 202.079 681.392 204.766 680.019 207.161C678.647 209.527 676.763 211.381 674.368 212.725C672.002 214.039 669.388 214.696 666.526 214.696ZM666.526 210.359C668.541 210.359 670.337 209.907 671.914 209.001C673.492 208.067 674.718 206.752 675.594 205.058C676.5 203.335 676.953 201.349 676.953 199.1C676.953 196.851 676.5 194.88 675.594 193.186C674.718 191.492 673.492 190.192 671.914 189.287C670.337 188.381 668.541 187.928 666.526 187.928C664.511 187.928 662.714 188.381 661.137 189.287C659.56 190.192 658.319 191.492 657.413 193.186C656.537 194.88 656.099 196.851 656.099 199.1C656.099 201.349 656.537 203.335 657.413 205.058C658.319 206.752 659.56 208.067 661.137 209.001C662.714 209.907 664.511 210.359 666.526 210.359ZM712.009 214.39H707.014L691.987 191.652V214.39H686.993V183.898H691.987L707.014 206.592V183.898H712.009V214.39Z" fill="white"/>
<path d="M140.14 129V111.8H187.27V129.47H174.77L174.61 125.73H170.95V158.13H174.77V154.95H187.27V171.82H140.14V154.47H152.48V158.13H156.22V125.81H152.64V129.39H140.14V129Z" fill="#F4F3F2" stroke="white" stroke-miterlimit="10"/>
</svg>
