<svg width="32" height="22" viewBox="0 0 32 22" fill="none" xmlns="http://www.w3.org/2000/svg">
<mask id="mask0_2733_60967" style="mask-type:luminance" maskUnits="userSpaceOnUse" x="0" y="0" width="30" height="22">
<path d="M29.5297 0H0V22H29.5297V0Z" fill="white"/>
</mask>
<g mask="url(#mask0_2733_60967)">
<path fill-rule="evenodd" clip-rule="evenodd" d="M28.7522 22.0028C28.3236 22.0028 27.9749 21.6616 27.9749 21.2384C27.9749 20.818 28.3236 20.4738 28.7522 20.4738C29.1806 20.4738 29.5297 20.818 29.5297 21.2384C29.5297 21.6616 29.1806 22.0028 28.7522 22.0028ZM28.7522 20.6199C28.4037 20.6199 28.1211 20.8968 28.1211 21.2384C28.1211 21.5826 28.4037 21.8597 28.7522 21.8597C29.1011 21.8597 29.383 21.5826 29.383 21.2384C29.383 20.8968 29.1011 20.6199 28.7522 20.6199ZM28.95 21.6706L28.7293 21.2991H28.6009V21.6706H28.4547V20.8057H28.7799C28.9963 20.8057 29.1126 20.8773 29.1126 21.0592C29.1126 21.2163 29.0123 21.2785 28.876 21.2927L29.1183 21.6706H28.95ZM28.9648 21.0469C28.9648 20.9439 28.8657 20.9248 28.7799 20.9248H28.6009V21.1792H28.7771C28.8804 21.1792 28.9648 21.1646 28.9648 21.0469ZM0 0H27.2162V21.9797H0V0Z" fill="black"/>
<path fill-rule="evenodd" clip-rule="evenodd" d="M17.8033 15.5693H22.4637V12.6383H20.9251L20.9263 14.2407C20.9263 14.6703 20.5714 15.0202 20.1338 15.0202C19.6966 15.0202 19.3414 14.6703 19.3414 14.2407V6.3645H17.8033V15.5693Z" fill="white"/>
<path fill-rule="evenodd" clip-rule="evenodd" d="M12.0719 15.5693V6.3645H15.1469C15.7403 6.3645 16.6843 6.84508 16.6843 7.86433V9.4323C16.6843 9.89074 16.2767 10.7032 15.6711 10.7032C16.2767 10.7032 16.6843 11.2179 16.6843 11.6078V14.3669C16.6843 14.8362 16.3002 15.5693 15.1469 15.5693H12.0719ZM14.448 10.3275C15.0071 10.3275 15.1469 10.2346 15.1469 8.79174C15.1469 7.34926 15.0071 7.23429 14.448 7.23429H13.6081V10.3253L14.448 10.3275ZM15.1469 12.9701C15.1469 11.5269 15.1469 11.1043 14.5399 11.1043H13.6081V14.813L14.5399 14.8149C15.1469 14.8149 15.1469 14.4122 15.1469 12.9701Z" fill="white"/>
<path fill-rule="evenodd" clip-rule="evenodd" d="M6.24512 13.9661C6.24512 14.6299 6.851 15.706 8.57483 15.706C10.2991 15.706 10.9054 14.8827 10.9054 13.9661V6.3645H9.36685L9.36764 14.2302C9.36764 14.6598 9.01356 15.0202 8.576 15.0202C8.13799 15.0202 7.78319 14.6703 7.78319 14.2407L7.78206 12.6383H6.24512V13.9661Z" fill="white"/>
<path fill-rule="evenodd" clip-rule="evenodd" d="M7.01443 11.6353C7.50523 11.6353 7.90408 11.2431 7.90408 10.7611C7.90408 10.2767 7.50523 9.88611 7.01443 9.88611C6.52213 9.88611 6.12439 10.2767 6.12439 10.7611C6.12439 11.2431 6.52213 11.6353 7.01443 11.6353Z" fill="white"/>
<path fill-rule="evenodd" clip-rule="evenodd" d="M7.01288 9.54688L8.43401 6.3645H5.59143L7.01288 9.54688Z" fill="white"/>
</g>
</svg>
